<svg id="ectwgaDAziL1" xmlns="http://www.w3.org/2000/svg" xmlns:xlink="http://www.w3.org/1999/xlink" viewBox="0 0 1412.47 1412.47" shape-rendering="geometricPrecision" text-rendering="geometricPrecision">
<style><![CDATA[
#ectwgaDAziL2_to {animation: ectwgaDAziL2_to__to 10000ms linear infinite normal forwards}@keyframes ectwgaDAziL2_to__to { 0% {transform: translate(706.235px,706.235px)} 20% {transform: translate(706.235px,676.235px)} 30% {transform: translate(706.235px,668.235px)} 40% {transform: translate(706.235px,694.235px)} 70% {transform: translate(706.235px,758.235px)} 80% {transform: translate(706.235px,766.235px)} 100% {transform: translate(706.235px,706.24px)}} #ectwgaDAziL14_tr {animation: ectwgaDAziL14_tr__tr 10000ms linear infinite normal forwards}@keyframes ectwgaDAziL14_tr__tr { 0% {transform: translate(473.328297px,836.265866px) rotate(0deg)} 9% {transform: translate(473.328297px,836.265866px) rotate(0deg)} 46% {transform: translate(473.328297px,836.265866px) rotate(6.098867deg)} 80% {transform: translate(473.328297px,836.265866px) rotate(-6.088118deg)} 100% {transform: translate(473.328297px,836.265866px) rotate(0deg)}} #ectwgaDAziL44_tr {animation: ectwgaDAziL44_tr__tr 10000ms linear infinite normal forwards}@keyframes ectwgaDAziL44_tr__tr { 0% {transform: translate(745.506897px,857.95166px) rotate(0deg)} 20% {transform: translate(745.506897px,857.95166px) rotate(-4.901586deg)} 50% {transform: translate(745.506897px,857.95166px) rotate(1.18104deg)} 100% {transform: translate(745.506897px,857.95166px) rotate(0.64478deg)}}
]]></style>
<defs><radialGradient id="ectwgaDAziL3-fill" cx="0" cy="0" r="332.01" spreadMethod="pad" gradientUnits="userSpaceOnUse" gradientTransform="translate(68.78 -73.76)"><stop id="ectwgaDAziL3-fill-0" offset="14%" stop-color="#615446"/><stop id="ectwgaDAziL3-fill-1" offset="100%" stop-color="#403c45"/></radialGradient><linearGradient id="ectwgaDAziL6-fill" x1="-263.45" y1="31.09" x2="273.22" y2="-32.24" spreadMethod="pad" gradientUnits="userSpaceOnUse" gradientTransform="translate(0 0)"><stop id="ectwgaDAziL6-fill-0" offset="10%" stop-color="#6b6155"/><stop id="ectwgaDAziL6-fill-1" offset="100%" stop-color="#544b5e"/></linearGradient><linearGradient id="ectwgaDAziL8-fill" x1="457.56" y1="1000.22" x2="1162.68" y2="936.47" spreadMethod="pad" gradientUnits="userSpaceOnUse" gradientTransform="translate(0 0)"><stop id="ectwgaDAziL8-fill-0" offset="14%" stop-color="#f0d5b6"/><stop id="ectwgaDAziL8-fill-1" offset="73%" stop-color="#969089"/><stop id="ectwgaDAziL8-fill-2" offset="100%" stop-color="#57626e"/></linearGradient><linearGradient id="ectwgaDAziL9-fill" x1="696.22" y1="942.06" x2="738.22" y2="518.06" spreadMethod="pad" gradientUnits="userSpaceOnUse" gradientTransform="translate(0 0)"><stop id="ectwgaDAziL9-fill-0" offset="14%" stop-color="#e6ddcd"/><stop id="ectwgaDAziL9-fill-1" offset="100%" stop-color="#c7ad8d"/></linearGradient><radialGradient id="ectwgaDAziL10-fill" cx="0" cy="0" r="391.44" spreadMethod="pad" gradientUnits="userSpaceOnUse" gradientTransform="translate(812.76 722.51)"><stop id="ectwgaDAziL10-fill-0" offset="8%" stop-color="#9e886f"/><stop id="ectwgaDAziL10-fill-1" offset="63%" stop-color="#7d746f"/></radialGradient><linearGradient id="ectwgaDAziL11-fill" x1="750.92" y1="976.03" x2="796.1" y2="519.91" spreadMethod="pad" gradientUnits="userSpaceOnUse" gradientTransform="translate(0 0)"><stop id="ectwgaDAziL11-fill-0" offset="14%" stop-color="#e6ddcd"/><stop id="ectwgaDAziL11-fill-1" offset="100%" stop-color="#c7ad8d"/></linearGradient><linearGradient id="ectwgaDAziL12-fill" x1="414.07" y1="1000.5" x2="857.99" y2="1000.5" spreadMethod="pad" gradientUnits="userSpaceOnUse" gradientTransform="translate(0 0)"><stop id="ectwgaDAziL12-fill-0" offset="16%" stop-color="#59524a"/><stop id="ectwgaDAziL12-fill-1" offset="77%" stop-color="#665d51"/></linearGradient><linearGradient id="ectwgaDAziL15-fill" x1="380.27" y1="797.6" x2="508.94" y2="856.27" spreadMethod="pad" gradientUnits="userSpaceOnUse" gradientTransform="translate(0 0)"><stop id="ectwgaDAziL15-fill-0" offset="1%" stop-color="#9ebda2"/><stop id="ectwgaDAziL15-fill-1" offset="100%" stop-color="#729979"/></linearGradient><linearGradient id="ectwgaDAziL16-fill" x1="498.37" y1="839.85" x2="419.87" y2="824.35" spreadMethod="pad" gradientUnits="userSpaceOnUse" gradientTransform="translate(0 0)"><stop id="ectwgaDAziL16-fill-0" offset="8%" stop-color="rgba(140,126,95,0.7)"/><stop id="ectwgaDAziL16-fill-1" offset="73%" stop-color="rgba(140,126,95,0)"/></linearGradient><radialGradient id="ectwgaDAziL18-fill" cx="0" cy="0" r="207.6" spreadMethod="pad" gradientUnits="userSpaceOnUse" gradientTransform="translate(578.32 774.98)"><stop id="ectwgaDAziL18-fill-0" offset="1%" stop-color="#9ebda2"/><stop id="ectwgaDAziL18-fill-1" offset="100%" stop-color="#81a687"/></radialGradient><radialGradient id="ectwgaDAziL28-fill" cx="0" cy="0" r="64.29" spreadMethod="pad" gradientUnits="userSpaceOnUse" gradientTransform="translate(-9.76 -14.68)"><stop id="ectwgaDAziL28-fill-0" offset="16%" stop-color="#382828"/><stop id="ectwgaDAziL28-fill-1" offset="98%" stop-color="#5c4545"/></radialGradient><radialGradient id="ectwgaDAziL40-fill" cx="0" cy="0" r="59.51" spreadMethod="pad" gradientUnits="userSpaceOnUse" gradientTransform="translate(-2.77 -9.01)"><stop id="ectwgaDAziL40-fill-0" offset="16%" stop-color="#382828"/><stop id="ectwgaDAziL40-fill-1" offset="98%" stop-color="#5c4545"/></radialGradient><linearGradient id="ectwgaDAziL45-fill" x1="745.92" y1="850.9" x2="882.92" y2="765.56" spreadMethod="pad" gradientUnits="userSpaceOnUse" gradientTransform="translate(0 0)"><stop id="ectwgaDAziL45-fill-0" offset="1%" stop-color="#8aaa8b"/><stop id="ectwgaDAziL45-fill-1" offset="100%" stop-color="#9fbb9f"/></linearGradient><linearGradient id="ectwgaDAziL46-fill" x1="743.08" y1="821.33" x2="856.93" y2="814.84" spreadMethod="pad" gradientUnits="userSpaceOnUse" gradientTransform="translate(0 0)"><stop id="ectwgaDAziL46-fill-0" offset="8%" stop-color="rgba(140,126,95,0.7)"/><stop id="ectwgaDAziL46-fill-1" offset="73%" stop-color="rgba(140,126,95,0)"/></linearGradient><radialGradient id="ectwgaDAziL52-fill" cx="0" cy="0" r="171.33" spreadMethod="pad" gradientUnits="userSpaceOnUse" gradientTransform="translate(604.65 899.98)"><stop id="ectwgaDAziL52-fill-0" offset="11%" stop-color="#e8e2d3"/><stop id="ectwgaDAziL52-fill-1" offset="95%" stop-color="#d6caa6"/></radialGradient><radialGradient id="ectwgaDAziL54-fill" cx="0" cy="0" r="584.3" spreadMethod="pad" gradientUnits="userSpaceOnUse" gradientTransform="translate(506.19 949.06)"><stop id="ectwgaDAziL54-fill-0" offset="10%" stop-color="#b8a38a"/><stop id="ectwgaDAziL54-fill-1" offset="26%" stop-color="#9e886f"/><stop id="ectwgaDAziL54-fill-2" offset="100%" stop-color="#52606e"/></radialGradient><linearGradient id="ectwgaDAziL56-fill" x1="571.63" y1="1049" x2="1114.63" y2="987" spreadMethod="pad" gradientUnits="userSpaceOnUse" gradientTransform="translate(0 0)"><stop id="ectwgaDAziL56-fill-0" offset="8%" stop-color="#bea487"/><stop id="ectwgaDAziL56-fill-1" offset="87%" stop-color="#818283"/></linearGradient><linearGradient id="ectwgaDAziL57-fill" x1="730.38" y1="935.95" x2="817.38" y2="1031.95" spreadMethod="pad" gradientUnits="objectBoundingBox" gradientTransform="translate(0 0)"/><linearGradient id="ectwgaDAziL58-fill" x1="781.05" y1="982.84" x2="804.05" y2="1038.34" spreadMethod="pad" gradientUnits="userSpaceOnUse" gradientTransform="translate(0 0)"><stop id="ectwgaDAziL58-fill-0" offset="1%" stop-color="#9ebda2"/><stop id="ectwgaDAziL58-fill-1" offset="100%" stop-color="#729979"/></linearGradient><linearGradient id="ectwgaDAziL62-fill" x1="441.09" y1="1023.47" x2="1038.42" y2="969.47" spreadMethod="pad" gradientUnits="userSpaceOnUse" gradientTransform="translate(0 0)"><stop id="ectwgaDAziL62-fill-0" offset="14%" stop-color="#f0d5b6"/><stop id="ectwgaDAziL62-fill-1" offset="100%" stop-color="#969089"/></linearGradient><linearGradient id="ectwgaDAziL63-fill" x1="1000.11" y1="967.98" x2="1000.11" y2="1052.13" spreadMethod="pad" gradientUnits="userSpaceOnUse" gradientTransform="translate(0 0)"><stop id="ectwgaDAziL63-fill-0" offset="1%" stop-color="#d9c6ad"/><stop id="ectwgaDAziL63-fill-1" offset="84%" stop-color="#74726e"/></linearGradient><linearGradient id="ectwgaDAziL64-fill" x1="-20.21" y1="-61.61" x2="20.29" y2="61.89" spreadMethod="pad" gradientUnits="userSpaceOnUse" gradientTransform="translate(0 0)"><stop id="ectwgaDAziL64-fill-0" offset="0%" stop-color="#c4b094"/><stop id="ectwgaDAziL64-fill-1" offset="100%" stop-color="#74726e"/></linearGradient><linearGradient id="ectwgaDAziL65-fill" x1="380.55" y1="1054.46" x2="489.01" y2="1054.46" spreadMethod="pad" gradientUnits="userSpaceOnUse" gradientTransform="translate(0 0)"><stop id="ectwgaDAziL65-fill-0" offset="14%" stop-color="#f0d4b2"/><stop id="ectwgaDAziL65-fill-1" offset="100%" stop-color="#d4b897"/></linearGradient><linearGradient id="ectwgaDAziL66-fill" x1="422" y1="1050.79" x2="615.5" y2="1102.29" spreadMethod="pad" gradientUnits="userSpaceOnUse" gradientTransform="translate(0 0)"><stop id="ectwgaDAziL66-fill-0" offset="8%" stop-color="#bea487"/><stop id="ectwgaDAziL66-fill-1" offset="87%" stop-color="#818283"/></linearGradient><linearGradient id="ectwgaDAziL73-fill" x1="403.15" y1="974.77" x2="420.97" y2="982.89" spreadMethod="pad" gradientUnits="userSpaceOnUse" gradientTransform="translate(0 0)"><stop id="ectwgaDAziL73-fill-0" offset="1%" stop-color="#9ebda2"/><stop id="ectwgaDAziL73-fill-1" offset="100%" stop-color="#729979"/></linearGradient><linearGradient id="ectwgaDAziL74-fill" x1="431.67" y1="981.75" x2="461.85" y2="995.51" spreadMethod="pad" gradientUnits="userSpaceOnUse" gradientTransform="translate(0 0)"><stop id="ectwgaDAziL74-fill-0" offset="1%" stop-color="#9ebda2"/><stop id="ectwgaDAziL74-fill-1" offset="100%" stop-color="#729979"/></linearGradient></defs><g id="ectwgaDAziL2_to" transform="translate(706.235,706.235)"><g transform="scale(1.522485,1.522485) translate(-706.246002,-943.159454)"><ellipse rx="265.58" ry="331.39" transform="translate(705.5 922.74)" fill="url(#ectwgaDAziL3-fill)"/><ellipse rx="254.17" ry="330.67" transform="translate(773.44 954.32)" fill="#171a2b" fill-opacity="0.35"/><ellipse rx="167" ry="221.17" transform="translate(838.28 944.82)" fill="#171a2b" fill-opacity="0.35"/><ellipse rx="340.04" ry="62.5" transform="translate(715.17 973.84)" fill="url(#ectwgaDAziL6-fill)"/><ellipse rx="217.33" ry="149.67" transform="translate(785.94 1087.98)" fill="#171a2b" fill-opacity="0.35"/><path d="M715.13,906.12c-210.48,0-381.12,31.7-381.12,70.81s170.63,70.81,381.12,70.81s381.12-31.7,381.12-70.81-170.64-70.81-381.12-70.81Zm0,112.19c-179.29,0-324.63-21.91-324.63-48.93s145.34-48.93,324.63-48.93s324.63,21.91,324.63,48.93-145.35,48.93-324.63,48.93Z" fill="url(#ectwgaDAziL8-fill)"/><path d="M698.29,604.87c65.52,0,128,36.72,175.86,103.39c30.92,43.05,53.32,95,66.06,151.92h37.4c-33.89-168.33-142.8-291.52-271.92-291.52-146.86,0-267.57,159.37-281.48,363.27l21.26,2.86c6.17-85.92,33-165.25,77-226.53c47.84-66.67,110.3-103.39,175.82-103.39Z" fill="url(#ectwgaDAziL9-fill)"/><path d="M910.28,733c62.25,127.58,53.6,199.33,55.14,239.73s13.09,32.24,15.39,30.9c1.49-.86,96.3-15,102-31.62.77-9.73,1.52-24.61,1.52-34.53c0-202.76-163.84-367.23-366.36-368.29c0,0-13,4.44-32.8,12.42C756.21,583.75,869.28,649,910.28,733Z" fill="url(#ectwgaDAziL10-fill)"/><path d="M704.51,568.66c-59.29,0-114.3,27.13-159.76,71.52l.3,39.51c44-48.2,96.79-74.81,152.06-74.81c65.52,0,128,36.72,175.86,103.39c50.52,70.35,78.35,164.49,78.35,265.07c0,6.12.33,25.71.11,31.86l34.75,13.05c.2-6.11,1.17-40.72,1.17-46.9-.01-222.4-126.64-402.69-282.84-402.69Z" fill="url(#ectwgaDAziL11-fill)"/><path d="M414.07,1019c15.7-41.6,54.72-82.28,67.64-86.41s274.73-14.89,303-3.32s76.07,64.05,73.12,95.3-358.63,103.22-443.76-5.57Z" fill="url(#ectwgaDAziL12-fill)"/><g><g id="ectwgaDAziL14_tr" transform="translate(473.328297,836.265866) rotate(0)"><g transform="translate(-505.387963,-849.604585)"><path d="M534.1,814.38c-30.66-3.54-63.19-27.22-116.62-31.27-51.89-3.93-92.08-28.7-101-18.48-6.59,7.53,18.67,33.41,43.44,60.54s53.92,56.43,130.57,48.17c38.89-1.17,74.27-1.17,43.61-58.96Z" fill="url(#ectwgaDAziL15-fill)"/><path d="M379.65,793.65c18,0,52.33,5.67,65.33,12s18.33,13,37.67,19.33s30.33,12.67,31,20.33-10.65,10.69-32.33,11.01-42.33,1-57.33-8-77.67-56-44.34-54.67Z" fill="url(#ectwgaDAziL16-fill)"/><path d="M343.05,782.55C362,798,420.06,790.06,455,811.32c23,14,46.33,22.7,53.88,26s-14.86,16.87-18.4,18.34-28.89-.9-33.91,2.64" fill="none" stroke="#688f6a" stroke-width="4" stroke-linecap="round" stroke-linejoin="round"/></g></g><path d="M521.11,784.4c-18.89,3.43-32.7,15.25-33.88,44.73-.24,6.12-.16,10.16-.43,14.54-.28,4.62-3.6,14.64-4.9,30.46-.59,7.15-1.46,23.4,26.85,36.37s93.76,25.36,158.62,14.74s86.34-20,89.77-32.77c4.34-16.12,18.73-68.82-18.57-102.88C705,758.89,668,743,627.86,743s-75.48,15.75-106.75,41.4Z" fill="url(#ectwgaDAziL18-fill)"/><path d="M556.51,886.32c3.54,2.36,7.64-.44,19.49-.59s19.43,5.31,30-.59" fill="none" stroke="#688f6a" stroke-width="4" stroke-linecap="round" stroke-linejoin="round"/><path d="M602.5,876.89c3.54,8.26,11.79,15.33,14.15,17.69" fill="none" stroke="#688f6a" stroke-width="4" stroke-linecap="round" stroke-linejoin="round"/><path d="M561.23,879.25c-3.54,4.72-9.43,13-17.69,18.87" fill="none" stroke="#688f6a" stroke-width="4" stroke-linecap="round" stroke-linejoin="round"/><path d="M570.86,870.79c-8.84-5.95-3.86-14.91,11.2-12.49c12.6,2,11.13,10.75,7.86,12.49" fill="none" stroke="#688f6a" stroke-width="4" stroke-linecap="round" stroke-linejoin="round"/><g><path d="M615.1,859.79c0-32.56,20.94-62.43,74.58-33.58.01,48.53-49.68,64.3-74.58,33.58Z" fill="#e8ded0"/><g clip-path="url(#ectwgaDAziL30)"><g><g><ellipse rx="32.63" ry="35.28" transform="translate(648.04 840.41)" fill="url(#ectwgaDAziL28-fill)"/><ellipse rx="7.64" ry="5.72" transform="matrix(.618957-.785425 0.785425 0.618957 635.223637 832.512609)" fill="#edddc7"/></g></g><clipPath id="ectwgaDAziL30"><path d="M615.1,859.79c0-32.56,20.94-62.43,74.58-33.58.01,48.53-49.68,64.3-74.58,33.58Z" fill="none"/></clipPath></g></g><path d="M645.88,804.34c17.49-1.57,33,2.95,43.63,12.28" fill="none" stroke="#688f6a" stroke-width="4" stroke-linecap="round" stroke-linejoin="round"/><path d="M560.56,899.15c4.57,4.41,11,6.57,17.31,6.92s12.66-1,18.74-2.82" fill="none" stroke="#688f6a" stroke-width="4" stroke-linecap="round" stroke-linejoin="round"/><path d="M495.39,819.55c4.750596-8.254236,13.672009-13.209295,23.19-12.88" fill="none" stroke="#688f6a" stroke-width="4" stroke-linecap="round" stroke-linejoin="round"/><g transform="translate(-.667103 0)"><path d="M493.22,833.25c10-18.48,46.29-23,53.61,29.48-11.75,24.77-56.95,14.94-53.61-29.48Z" fill="#e8ded0"/><g transform="translate(-4.71716 0.819031)" clip-path="url(#ectwgaDAziL42)"><g><g><ellipse rx="24.91" ry="31.55" transform="translate(519.05 844.74)" fill="url(#ectwgaDAziL40-fill)"/><ellipse rx="7" ry="5.01" transform="matrix(.618957-.785425 0.785425 0.618957 506.837248 833.924379)" fill="#edddc7"/></g></g><clipPath id="ectwgaDAziL42"><path d="M493.22,833.25c10-18.48,46.29-23,53.61,29.48-11.75,24.77-56.95,14.94-53.61-29.48Z" fill="none"/></clipPath></g></g><g id="ectwgaDAziL44_tr" transform="translate(745.506897,857.95166) rotate(0)"><g transform="translate(-745.506897,-857.95166)"><path d="M727.68,814.19c20.11-6.1,37.94-34.49,77.22-43.4C843,762.15,900.46,756.3,918.77,750c18-6.14,14.85,6.74-2.29,25.18-17.63,19-65,64.6-104.55,83.37-41.19,19.59-62.87,11.2-79.93,20.45" fill="url(#ectwgaDAziL45-fill)"/><path d="M825.32,777.65c-21.73,6.11-33.67,14-56,35s-33,26.67-20.33,28s16.66,1.35,14.66,6.35-15,8.33-14.67,13.67s17.08,7.28,45.67-9.42c62.5-36.5,79.67-77.58,75.67-79.92s-23.67.32-45,6.32Z" fill="url(#ectwgaDAziL46-fill)"/><path d="M885.6,766.1c-12.2,3.69-64.3,10.58-77.06,17.38-12.93,6.89-36.72,25.77-51.25,39.08-14.83,13.57-17.49,18.88-6.87,18.63c13.9-.33,15.63,3.86,13.09,7.09-4,5.06-19.69,9.28-13.33,15.14" fill="none" stroke="#688f6a" stroke-width="4" stroke-linecap="round" stroke-linejoin="round"/></g></g><path d="M501,793.45c11.5-10.89,29.31-7.61,38.75-5.83" fill="none" stroke="#688f6a" stroke-width="5" stroke-linecap="round" stroke-miterlimit="10"/><path d="M556.51,771.59c4.72-3.54,13.47-9.93,27.64-2.28c17.17-11.28,32-7,46.85.32" fill="none" stroke="#688f6a" stroke-width="4" stroke-linecap="round" stroke-linejoin="round"/><path d="M579.27,759.21c3.84-2.88,13.85-7.48,22.49-1.86c14-9.18,27.63-5.28,39.71.65" fill="none" stroke="#688f6a" stroke-width="4" stroke-linecap="round" stroke-linejoin="round"/><path d="M631,782.55c16.31-6.86,40.69-3.72,58.67,10.89" fill="none" stroke="#688f6a" stroke-width="5" stroke-linecap="round" stroke-miterlimit="10"/></g><path d="M473,885.73c-14.94,7.08-39.7,24.47-34.2,48.25s44.6,81.25,89,78.5c21.6,26.73,91.43,6.9,129.56-13.54s122.64-39.94,152.11-47.66s15.68-25.59,5-38.25c-12.38-14.74-27.52-29-47.17-28.89s-112.91,29.11-131.7,34.22-44.35,4.72-44.35,4.72C576,912.86,563.42,909,545.36,911.34c-28,3.62-50-7.7-60-22.66-4.29-6.42-5.36-6.56-12.36-2.95Z" fill="url(#ectwgaDAziL52-fill)"/><path d="M593.12,923.08c-13.44,2.67-30,21.87-69.34,94.4" fill="none" stroke="#b3a68f" stroke-width="4" stroke-linecap="round" stroke-miterlimit="10"/><path d="M340.19,978.17c18.73,190.58,179.44,339.48,374.94,339.48c182.65,0,334.92-130,369.42-302.48c2.63-13.15-88.56,18.94-146.59,28-214.11,33.21-516.16-27.12-597.77-65Z" fill="url(#ectwgaDAziL54-fill)"/><path d="M840.61,1111c-34.51,124.56-169.33,182.82-260.18,181.84c86.534297,33.009102,182.17689,33.094506,268.77.24c144-74.08,202.74-210.83,202.74-225.42c0-16.66-145.33-1.34-211.33,43.34Z" fill="#3f445e" fill-opacity="0.35"/><path d="M1096.24,976.93c2.36,12.78,0,42.62-10.84,70.28C1067.28,1093.47,919,1122,711.88,1122h6.49c-207.07,0-355.4-28.57-373.52-74.83C334,1019.56,332.28,987.8,334.64,975c19.66,18.08,172.1,59,380.49,59s379.19-14.9,381.11-57.07Z" fill="url(#ectwgaDAziL56-fill)"/><path d="M866.12,1014.46c0,0-11.06-28-31.55-39.21-53.81-29.34-100.24,11.5-99.95,45.11c1.77,5.45,120.29,7.81,131.5-5.9Z" fill="url(#ectwgaDAziL57-fill)"/><path d="M752.44,1018.15c1.48-8.29,8.74-19.51,24.13-30.16s30.48-10.65,34.62,1.78c16.57,3.85,23.36,10,24.25,25.72-46.58,5.01-75.44,3.99-83,2.66Z" fill="url(#ectwgaDAziL58-fill)"/><path d="M788.7,990.65c3,.89-4.52,18.94,1.05,22.33c11.66,7.11,22.27-15.3,19.9-24.47" fill="none" stroke="#688f6a" stroke-width="4" stroke-linecap="round" stroke-linejoin="round"/><path d="M814.74,1003.67c-2.66,3.26-7.1,10.95-5,12.72" fill="none" stroke="#688f6a" stroke-width="4" stroke-linecap="round" stroke-linejoin="round"/><path d="M772.13,1004c2.07,3,4.44,7.1,2.66,13.32" fill="none" stroke="#688f6a" stroke-width="4" stroke-linecap="round" stroke-linejoin="round"/><path d="M951.46,1002.91c-59.19,9.48-143.17,15.4-236.34,15.4-164.06,0-299.67-18.35-321.52-42.17h-59.54c0,.27-.05.53-.05.8c0,39.11,170.63,70.81,381.12,70.81c104.18,0,198.58-7.77,267.38-20.36v-20.1Z" fill="url(#ectwgaDAziL62-fill)"/><path d="M1035,1011.94c0-18.67-4.81-35.5-12.5-47.39v-17.83h-17.4c-22,0-39.9,29.2-39.9,65.22s17.87,65.22,39.9,65.22h17.43v-17.83c7.69-11.89,12.47-28.72,12.47-47.39Z" fill="url(#ectwgaDAziL63-fill)"/><ellipse rx="39.9" ry="65.22" transform="translate(1023.95 1011.94)" fill="url(#ectwgaDAziL64-fill)"/><path d="M481.28,1085.26c-31.534342-3.813831-62.660436-10.464105-93-19.87-4.27-1.32-7.73-6.28-7.73-11v-24.39c0-4.73,3.46-7.42,7.73-6.11c30.339564,9.405895,61.465658,16.056169,93,19.87c4.27.51,7.73,4.69,7.73,9.42v24.34c-.01,4.77-3.46,8.25-7.73,7.74Z" fill="url(#ectwgaDAziL65-fill)"/><path d="M390.52,1055.48c-.284298-.30432-.469167-.688011-.53-1.1v-21.23c28.939305,9.455242,58.788456,15.856755,89.06,19.1.293336.257047.481962.612945.53,1v21.23c-30.268287-3.208556-60.117587-9.576586-89.06-19Z" fill="url(#ectwgaDAziL66-fill)"/><g clip-path="url(#ectwgaDAziL71)"><g><line x1="417.68" y1="1155.43" x2="417.68" y2="997.8" fill="none" stroke="#d6c1a3" stroke-width="4" stroke-miterlimit="10"/><line x1="451.88" y1="997.8" x2="451.88" y2="1155.43" fill="none" stroke="#d6c1a3" stroke-width="4" stroke-miterlimit="10"/></g><clipPath id="ectwgaDAziL71"><path d="M390.52,1055.48c-.284298-.30432-.469167-.688011-.53-1.1v-21.23c28.939305,9.455242,58.788456,15.856755,89.06,19.1.293336.257047.481962.612945.53,1v21.23c-30.268287-3.208556-60.117587-9.576586-89.06-19Z" fill="none"/></clipPath></g><path d="M431,968.52c-6-1.72-10.16.72-19.61.43s-14.17,3.29-19.32,8.44-6.58,13.45,6.3,10.45c11-2.57,20.75-2.29,23.9-2.86s9.59-12.74,8.73-16.46Z" fill="url(#ectwgaDAziL73-fill)"/><path d="M453,978c-7.78-7.43-11.45-15.74-17.75-13.17s-20.61,10.31-24,21.47s9.34,9.25,15.64,5.53c17.43,5.86,40.88,9.19,40.88,9.19s-2.13-11.02-14.77-23.02Z" fill="url(#ectwgaDAziL74-fill)"/><path d="M439.31,982.55c-1.43,0-4.49,4-12.57,9.41" fill="none" stroke="#688f6a" stroke-width="4" stroke-linecap="round" stroke-linejoin="round"/></g></g></svg>
