<?xml version="1.0" encoding="UTF-8"?><svg xmlns="http://www.w3.org/2000/svg" viewBox="0 0 93.55 30.84"><defs><style>.cls-1{isolation:isolate;}.cls-2{fill:#2a3a52;}.cls-3{fill:#e4dfe3;}.cls-4{fill:#708091;}.cls-5{mix-blend-mode:darken;opacity:.16;}.cls-6{fill:#303d52;}.cls-7{opacity:.46;}.cls-7,.cls-8{fill:#fff;mix-blend-mode:soft-light;}.cls-8{opacity:.69;}</style></defs><g class="cls-1"><g id="Layer_2"><g id="Layer_1-2"><g><path class="cls-3" d="M70.15,5.68c-.02,.12-.03,.24-.03,.37v15.59c0,.28-.05,.57-.14,.83l-.06,.18-1.53,4.35-.09,.25c-.16,.46-.18,.93-.09,1.36h-14.29c.23-.49,.35-1.03,.35-1.59V7.26c0-.56-.12-1.1-.34-1.58h16.22Z"/><path class="cls-3" d="M33.7,12.61c0-.61-.06-1.2-.18-1.77-.12-.64-.31-1.26-.57-1.84-.54-1.29-1.38-2.42-2.42-3.32h5.5c-.22,.48-.34,1.02-.34,1.58V27.02c0,.56,.12,1.1,.35,1.59h-5.51c.55-.48,1.04-1.02,1.46-1.61,.9-1.25,1.49-2.74,1.65-4.35,.04-.32,.06-.65,.06-.98V12.61Z"/><path class="cls-3" d="M33.7,12.61v9.06c0,2.78-1.23,5.26-3.17,6.94H10.12c-2.11,0-3.82-1.68-3.82-3.75V9.42c0-2.06,1.71-3.74,3.82-3.74H30.53c1.94,1.68,3.17,4.16,3.17,6.93Z"/><path class="cls-4" d="M92.86,27c-.67,.96-1.8,1.61-3.14,1.61h-12.42l.57-1.61,1.53-4.35,.06-.18c.09-.26,.14-.55,.14-.83V6.05c0-.13-.01-.25-.03-.37h3.04c1.5,0,2.86,.86,3.48,2.2l.52,1.12,.84,1.84,1.03,2.23,3.38,7.34,1.03,2.24,.31,.67c.6,1.28,.39,2.66-.34,3.68Z"/><path class="cls-4" d="M54.27,7.26V27.02c0,.56-.12,1.1-.35,1.59-.6,1.32-1.93,2.23-3.47,2.23h-10.93c-1.54,0-2.88-.91-3.48-2.23-.23-.49-.35-1.03-.35-1.59V7.26c0-.56,.12-1.1,.34-1.58,.61-1.32,1.94-2.24,3.49-2.24h10.93c1.55,0,2.88,.92,3.48,2.24,.22,.48,.34,1.02,.34,1.58Z"/><path class="cls-2" d="M79.6,6.05v15.59c0,.28-.05,.57-.14,.83l-.06,.18-1.53,4.35-.57,1.61-.11,.31c-.35,1.01-1.3,1.68-2.37,1.68h-4.15c-1.24,0-2.22-.88-2.46-1.99-.09-.43-.07-.9,.09-1.36l.09-.25,1.53-4.35,.06-.18c.09-.26,.14-.55,.14-.83V6.05c0-.13,.01-.25,.03-.37,.18-1.21,1.23-2.14,2.48-2.14h4.46c1.25,0,2.3,.93,2.48,2.14,.02,.12,.03,.24,.03,.37Z"/><path class="cls-6" d="M50.11,1.66v1.78h-10.26V1.66c0-.92,.74-1.66,1.65-1.66h6.96c.91,0,1.65,.74,1.65,1.66Z"/><path class="cls-2" d="M10.12,28.61H30.53c-1.61,1.39-3.7,2.23-6,2.23H9.17c-3.08,0-5.8-1.51-7.46-3.84-.9-1.25-1.49-2.73-1.65-4.35-.04-.32-.06-.65-.06-.98V12.61c0-.6,.06-1.2,.18-1.77,.12-.64,.31-1.25,.56-1.84C2.14,5.73,5.38,3.44,9.17,3.44h15.36c2.3,0,4.39,.84,6,2.24H10.12c-.49,0-.96,.09-1.39,.26-.09,.04-.19,.08-.28,.12-.02,.01-.04,.02-.05,.02,0,0-.01,0-.01,.01-.09,.04-.17,.09-.26,.15h-.01c-.07,.04-.14,.08-.2,.13-.07,.05-.13,.09-.19,.14-.08,.06-.15,.13-.22,.19-.07,.05-.13,.11-.18,.18-.08,.07-.15,.16-.22,.24,0,.01-.01,.02-.02,.03-.06,.08-.12,.16-.17,.24-.06,.08-.11,.16-.16,.25-.22,.41-.38,.87-.43,1.36-.02,.14-.03,.28-.03,.42v4.48c.18-.03,.37-.05,.56-.05h14.79c1.7,0,3.07,1.38,3.07,3.08v.42c0,1.59-1.2,2.91-2.76,3.06-.1,.01-.2,.02-.31,.02H6.86c-.12,0-.24-.01-.35-.02-.07-.01-.14-.02-.21-.03v4.48c0,.26,.03,.52,.08,.76,.02,.11,.05,.21,.08,.31,.03,.11,.07,.22,.12,.33,.03,.09,.07,.18,.12,.26,.02,.05,.05,.1,.08,.15,.04,.07,.09,.15,.13,.22,.03,.04,.05,.07,.08,.11,.08,.11,.16,.22,.25,.32t.02,.02c.28,.31,.61,.58,.98,.78,.13,.07,.26,.13,.39,.19,.08,.04,.17,.07,.27,.1,.1,.04,.21,.07,.33,.09,.1,.03,.2,.05,.3,.06,.08,.01,.15,.02,.23,.03,.12,.01,.24,.02,.36,.02Z"/><path class="cls-8" d="M87.45,10.84H.18c.12-.64,.31-1.25,.56-1.84H86.61l.84,1.84Z"/><polygon class="cls-7" points="91.86 20.41 0 20.41 0 13.07 88.48 13.07 91.86 20.41"/><path class="cls-5" d="M92.86,27c-.67,.96-1.8,1.61-3.14,1.61h-12.42l-.11,.31c-.35,1.01-1.3,1.68-2.37,1.68h-4.15c-1.24,0-2.22-.88-2.46-1.99h-14.29c-.6,1.32-1.93,2.23-3.47,2.23h-10.93c-1.54,0-2.88-.91-3.48-2.23h-5.51c-1.61,1.39-3.7,2.23-6,2.23H9.17c-3.08,0-5.8-1.51-7.46-3.84-.9-1.25-1.49-2.73-1.65-4.35H92.89l.31,.67c.6,1.28,.39,2.66-.34,3.68Z"/><path class="cls-5" d="M92.86,27c-.67,.96-1.8,1.61-3.14,1.61h-12.42l-.11,.31c-.35,1.01-1.3,1.68-2.37,1.68h-4.15c-1.24,0-2.22-.88-2.46-1.99h-14.29c-.6,1.32-1.93,2.23-3.47,2.23h-10.93c-1.54,0-2.88-.91-3.48-2.23h-5.51c-1.61,1.39-3.7,2.23-6,2.23H9.17c-3.08,0-5.8-1.51-7.46-3.84H92.86Z"/></g></g></g></g></svg>